<?xml version="1.0" encoding="utf-8"?>
<!-- Generator: Adobe Illustrator 19.2.1, SVG Export Plug-In . SVG Version: 6.00 Build 0)  -->
<svg version="1.1" id="Layer_1" xmlns="http://www.w3.org/2000/svg" xmlns:xlink="http://www.w3.org/1999/xlink" x="0px" y="0px"
	 viewBox="0 0 1400 980" style="enable-background:new 0 0 1400 980;" xml:space="preserve">
<style type="text/css">
	.st0{fill:#AC54BA;}
	.st1{clip-path:url(#SVGID_2_);}
	.st2{fill:url(#SVGID_3_);}
	.st3{fill:url(#SVGID_4_);}
	.st4{fill:url(#SVGID_5_);}
	.st5{opacity:0.35;fill:url(#SVGID_6_);}
	.st6{fill:url(#SVGID_7_);}
	.st7{fill:url(#SVGID_8_);}
	.st8{fill:url(#SVGID_9_);}
	.st9{fill:url(#SVGID_10_);}
	.st10{fill:url(#SVGID_11_);}
	.st11{fill:url(#SVGID_12_);}
	.st12{fill:url(#SVGID_13_);}
	.st13{fill:url(#SVGID_14_);}
	.st14{fill:url(#SVGID_15_);}
	.st15{fill:url(#SVGID_16_);}
	.st16{fill:url(#SVGID_17_);}
	.st17{fill:url(#SVGID_18_);}
	.st18{fill:url(#SVGID_19_);}
	.st19{fill:url(#SVGID_20_);}
	.st20{fill:url(#SVGID_21_);}
	.st21{fill:url(#SVGID_22_);}
	.st22{fill:url(#SVGID_23_);}
	.st23{fill:url(#SVGID_24_);}
	.st24{fill:url(#SVGID_25_);}
	.st25{fill:url(#SVGID_26_);}
	.st26{fill:url(#SVGID_27_);}
	.st27{fill:url(#SVGID_28_);}
	.st28{fill:url(#SVGID_29_);}
	.st29{fill:url(#SVGID_30_);}
	.st30{fill:url(#SVGID_31_);}
	.st31{fill:url(#SVGID_32_);}
	.st32{fill:url(#SVGID_33_);}
	.st33{fill:url(#SVGID_34_);}
	.st34{fill:url(#SVGID_35_);}
	.st35{fill:url(#SVGID_36_);}
	.st36{fill:url(#SVGID_37_);}
	.st37{fill:url(#SVGID_38_);}
	.st38{fill:url(#SVGID_39_);}
	.st39{fill:url(#SVGID_40_);}
	.st40{fill:url(#SVGID_41_);}
	.st41{fill:url(#SVGID_42_);}
	.st42{fill:url(#SVGID_43_);}
	.st43{fill:url(#SVGID_44_);}
	.st44{fill:url(#SVGID_45_);}
	.st45{fill:url(#SVGID_46_);}
	.st46{fill:url(#SVGID_47_);}
	.st47{fill:url(#SVGID_48_);}
	.st48{fill:url(#SVGID_49_);}
	.st49{fill:url(#SVGID_50_);}
	.st50{fill:url(#SVGID_51_);}
	.st51{fill:url(#SVGID_52_);}
	.st52{fill:url(#SVGID_53_);}
	.st53{fill:url(#SVGID_54_);}
	.st54{fill:url(#SVGID_55_);}
	.st55{fill:url(#SVGID_56_);}
	.st56{fill:url(#SVGID_57_);}
	.st57{fill:url(#SVGID_58_);}
	.st58{fill:url(#SVGID_59_);}
	.st59{fill:url(#SVGID_60_);}
	.st60{fill:url(#SVGID_61_);}
	.st61{fill:url(#SVGID_62_);}
	.st62{fill:url(#SVGID_63_);}
	.st63{fill:url(#SVGID_64_);}
	.st64{fill:url(#SVGID_65_);}
	.st65{fill:url(#SVGID_66_);}
	.st66{opacity:0.35;fill:url(#SVGID_67_);}
	.st67{opacity:0.35;fill:url(#SVGID_68_);}
	.st68{opacity:0.35;fill:url(#SVGID_69_);}
	.st69{opacity:0.35;fill:url(#SVGID_70_);}
	.st70{fill:#FFBFD2;}
	.st71{clip-path:url(#SVGID_72_);}
	.st72{fill:#D4261B;}
	.st73{fill:#9C00B9;}
	.st74{fill:#FFE5DB;}
	.st75{fill:#FFD5C7;}
	.st76{fill:#C8B6FF;}
	.st77{fill:#B186F6;}
	.st78{fill:#26004F;}
	.st79{fill:#FF2368;}
	.st80{fill:#E2261B;}
	.st81{fill:#BE9BF6;}
	.st82{fill:#AB1A12;}
	.st83{fill:#FF776D;}
	.st84{fill:#E0215C;}
	.st85{fill:url(#SVGID_73_);}
	.st86{fill:url(#SVGID_74_);}
	.st87{fill:url(#SVGID_75_);}
	.st88{fill:url(#SVGID_76_);}
	.st89{fill:url(#SVGID_77_);}
	.st90{fill:url(#SVGID_78_);}
	.st91{fill:#FF5489;}
	.st92{fill:#760097;}
	.st93{fill:#70008F;}
	.st94{fill:url(#SVGID_79_);}
	.st95{fill:url(#SVGID_80_);}
	.st96{fill:url(#SVGID_81_);}
	.st97{fill:#9400B0;}
</style>
<rect class="st0" width="1400" height="980"/>
<g>
	<g>
		<defs>
			<path id="SVGID_1_" d="M969.6,268.6c40.6,78.7,142.8,55.8,202.6,108.6c56.4,49.9,69.5,130.2,44.8,201.3
				c-9.5,27.4-23.3,52.9-38.9,76.8c-109,166.6-326.1,234.2-510.1,237.6c-60.7,1.1-121.7-7-179.7-26.1
				c-56.5-18.5-103.5-58.8-159.4-75.7c-51.9-15.7-114.7-40.4-143.2-92.6c-15.8-29-16.4-66.1-4.5-96.8c10.5-27.2,34.7-44.6,46.8-70.7
				c8.9-19.2,9.8-42.3,2.5-62.2c-13.3-36.1-46.6-58.8-56.2-97.4c-9.7-39.1,2.9-82.8,26.9-113.3c78.5-99.5,199.1-41,301.2-48.8
				c94.6-7.2,176.3-61.4,269.8-75.7c70.2-10.7,155.7-1.9,180.1,81.1c2.1,7,3.8,14.1,5.7,21.1C961,247.1,964.3,258.3,969.6,268.6z
				 M1029.5,185.9c-0.1,0-0.2,0-0.2,0c-21.4,3.5-38.5,18.5-35.3,42c8.2,61.1,80.8,95,135.1,94.4c10-0.1,20-1.4,29.6-4.2
				c8.2-2.4,16.3-6.2,22.1-12.6c32.3-35-31-85.6-56.6-100.9C1095.6,187.7,1062.2,180.7,1029.5,185.9z"/>
		</defs>
		<clipPath id="SVGID_2_">
			<use xlink:href="#SVGID_1_"  style="overflow:visible;"/>
		</clipPath>
		<g class="st1">
			<linearGradient id="SVGID_3_" gradientUnits="userSpaceOnUse" x1="162.3429" y1="524.0703" x2="1236.1125" y2="524.0703">
				<stop  offset="0" style="stop-color:#FFDBEC"/>
				<stop  offset="1" style="stop-color:#FF6A92"/>
			</linearGradient>
			<rect x="162.3" y="119.1" class="st2" width="1073.8" height="810"/>
			<linearGradient id="SVGID_4_" gradientUnits="userSpaceOnUse" x1="704.0334" y1="705.2161" x2="1211.7075" y2="705.2161">
				<stop  offset="0" style="stop-color:#FF6A92"/>
				<stop  offset="1" style="stop-color:#FF90B6"/>
			</linearGradient>
			<rect x="704" y="622.2" class="st3" width="507.7" height="166.1"/>
			<linearGradient id="SVGID_5_" gradientUnits="userSpaceOnUse" x1="704.0334" y1="514.6851" x2="1211.7075" y2="514.6851">
				<stop  offset="0" style="stop-color:#FF6A92"/>
				<stop  offset="1" style="stop-color:#FF90B6"/>
			</linearGradient>
			<rect x="704" y="431.6" class="st4" width="507.7" height="166.1"/>
			<linearGradient id="SVGID_6_" gradientUnits="userSpaceOnUse" x1="698.444" y1="398.1577" x2="700.0882" y2="103.8388">
				<stop  offset="0" style="stop-color:#FFC8EC;stop-opacity:0"/>
				<stop  offset="1" style="stop-color:#FF6A92"/>
			</linearGradient>
			<rect x="162.3" y="119.1" class="st5" width="1073.8" height="277.6"/>
			<linearGradient id="SVGID_7_" gradientUnits="userSpaceOnUse" x1="704.031" y1="324.1592" x2="1211.705" y2="324.1592">
				<stop  offset="0" style="stop-color:#FF6A92"/>
				<stop  offset="1" style="stop-color:#FF90B6"/>
			</linearGradient>
			<rect x="704" y="241.1" class="st6" width="507.7" height="166.1"/>
			<linearGradient id="SVGID_8_" gradientUnits="userSpaceOnUse" x1="635.0366" y1="405.8198" x2="635.0366" y2="337.4857">
				<stop  offset="0" style="stop-color:#FFC8EC"/>
				<stop  offset="1" style="stop-color:#FF6A92"/>
			</linearGradient>
			<rect x="588.8" y="339.3" class="st7" width="92.5" height="67.9"/>
			<linearGradient id="SVGID_9_" gradientUnits="userSpaceOnUse" x1="761.6825" y1="407.2434" x2="761.6825" y2="314.911">
				<stop  offset="0" style="stop-color:#FFC8EC"/>
				<stop  offset="1" style="stop-color:#FF99C0"/>
			</linearGradient>
			<rect x="718.3" y="314.7" class="st8" width="86.8" height="92.5"/>
			<linearGradient id="SVGID_10_" gradientUnits="userSpaceOnUse" x1="1054.9609" y1="406.7961" x2="1054.5542" y2="350.6645">
				<stop  offset="0" style="stop-color:#FFC8EC"/>
				<stop  offset="1" style="stop-color:#FF99C0"/>
			</linearGradient>
			<rect x="1021.4" y="350.8" class="st9" width="66.8" height="56.5"/>
			<linearGradient id="SVGID_11_" gradientUnits="userSpaceOnUse" x1="957.3768" y1="405.8961" x2="957.3768" y2="327.7999">
				<stop  offset="0" style="stop-color:#FFC8EC"/>
				<stop  offset="1" style="stop-color:#FF99C0"/>
			</linearGradient>
			<polygon class="st10" points="993.6,327.3 921.2,327.3 924.6,407.2 990.1,407.2 			"/>
			<linearGradient id="SVGID_12_" gradientUnits="userSpaceOnUse" x1="866.3937" y1="404.3694" x2="865.7836" y2="305.5289">
				<stop  offset="0" style="stop-color:#FFC8EC"/>
				<stop  offset="1" style="stop-color:#FF99C0"/>
			</linearGradient>
			<polygon class="st11" points="884.6,339.3 884.6,305.3 847.8,305.3 847.8,339.3 827.1,339.3 827.1,407.2 905.3,407.2 
				905.3,339.3 			"/>
			<linearGradient id="SVGID_13_" gradientUnits="userSpaceOnUse" x1="1136.8817" y1="405.9988" x2="1136.475" y2="331.1566">
				<stop  offset="0" style="stop-color:#FFC8EC"/>
				<stop  offset="1" style="stop-color:#FF99C0"/>
			</linearGradient>
			<polygon class="st12" points="1151.6,356.7 1151.6,331.4 1121.9,331.4 1121.9,356.7 1105.3,356.7 1105.3,407.2 1168.2,407.2 
				1168.2,356.7 			"/>
			<g>
				<linearGradient id="SVGID_14_" gradientUnits="userSpaceOnUse" x1="1175.2635" y1="598.8007" x2="1175.6703" y2="494.6725">
					<stop  offset="0" style="stop-color:#FFC8EC"/>
					<stop  offset="1" style="stop-color:#FF6A92"/>
				</linearGradient>
				<path class="st13" d="M1185.4,515.9v-19.7h-20v19.7c0,1.8-1.5,3.3-3.3,3.3h-4.2c-2.8,0-5,2.2-5,5v68.4c0,2.8,2.2,5,5,5h35
					c2.8,0,5-2.2,5-5v-68.4c0-2.8-2.2-5-5-5h-4.2C1186.9,519.2,1185.4,517.7,1185.4,515.9z"/>
				
					<linearGradient id="SVGID_15_" gradientUnits="userSpaceOnUse" x1="566.2885" y1="419.9298" x2="565.6778" y2="469.4001" gradientTransform="matrix(-1 0 0 -1 1741.4254 1000.6143)">
					<stop  offset="0" style="stop-color:#FFC8EC;stop-opacity:0"/>
					<stop  offset="1" style="stop-color:#FF6A92"/>
				</linearGradient>
				<path class="st14" d="M1163.2,535.1h24.4c1.2,0,2.1,0.9,2.1,2.1v40.9c0,1.2-0.9,2.1-2.1,2.1h-24.4c-1.2,0-2.1-0.9-2.1-2.1v-40.9
					C1161.1,536.1,1162.1,535.1,1163.2,535.1z"/>
				<linearGradient id="SVGID_16_" gradientUnits="userSpaceOnUse" x1="1164.3031" y1="490.0131" x2="1186.5393" y2="490.0131">
					<stop  offset="0" style="stop-color:#FFB8EC"/>
					<stop  offset="1" style="stop-color:#FF6A92"/>
				</linearGradient>
				<path class="st15" d="M1186,483.8h-21.1c-0.3,0-0.6,0.2-0.6,0.6v11.3c0,0.3,0.2,0.6,0.6,0.6h21.1c0.3,0,0.6-0.2,0.6-0.6v-11.3
					C1186.5,484,1186.3,483.8,1186,483.8z"/>
			</g>
			<g>
				<linearGradient id="SVGID_17_" gradientUnits="userSpaceOnUse" x1="1116.6914" y1="598.8007" x2="1117.0981" y2="494.6725">
					<stop  offset="0" style="stop-color:#FFC8EC"/>
					<stop  offset="1" style="stop-color:#FF6A92"/>
				</linearGradient>
				<path class="st16" d="M1126.8,515.9v-19.7h-20v19.7c0,1.8-1.5,3.3-3.3,3.3h-4.2c-2.8,0-5,2.2-5,5v68.4c0,2.8,2.2,5,5,5h35
					c2.8,0,5-2.2,5-5v-68.4c0-2.8-2.2-5-5-5h-4.2C1128.3,519.2,1126.8,517.7,1126.8,515.9z"/>
				
					<linearGradient id="SVGID_18_" gradientUnits="userSpaceOnUse" x1="624.8607" y1="419.9298" x2="624.2499" y2="469.4001" gradientTransform="matrix(-1 0 0 -1 1741.4254 1000.6143)">
					<stop  offset="0" style="stop-color:#FFC8EC;stop-opacity:0"/>
					<stop  offset="1" style="stop-color:#FF6A92"/>
				</linearGradient>
				<path class="st17" d="M1104.7,535.1h24.4c1.2,0,2.1,0.9,2.1,2.1v40.9c0,1.2-0.9,2.1-2.1,2.1h-24.4c-1.2,0-2.1-0.9-2.1-2.1v-40.9
					C1102.6,536.1,1103.5,535.1,1104.7,535.1z"/>
				<linearGradient id="SVGID_19_" gradientUnits="userSpaceOnUse" x1="1105.731" y1="490.0131" x2="1127.9672" y2="490.0131">
					<stop  offset="0" style="stop-color:#FFB8EC"/>
					<stop  offset="1" style="stop-color:#FF6A92"/>
				</linearGradient>
				<path class="st18" d="M1127.4,483.8h-21.1c-0.3,0-0.6,0.2-0.6,0.6v11.3c0,0.3,0.2,0.6,0.6,0.6h21.1c0.3,0,0.6-0.2,0.6-0.6v-11.3
					C1128,484,1127.7,483.8,1127.4,483.8z"/>
			</g>
			<g>
				<linearGradient id="SVGID_20_" gradientUnits="userSpaceOnUse" x1="1058.1193" y1="598.8007" x2="1058.526" y2="494.6725">
					<stop  offset="0" style="stop-color:#FFC8EC"/>
					<stop  offset="1" style="stop-color:#FF6A92"/>
				</linearGradient>
				<path class="st19" d="M1068.3,515.9v-19.7h-20v19.7c0,1.8-1.5,3.3-3.3,3.3h-4.2c-2.8,0-5,2.2-5,5v68.4c0,2.8,2.2,5,5,5h35
					c2.8,0,5-2.2,5-5v-68.4c0-2.8-2.2-5-5-5h-4.2C1069.7,519.2,1068.3,517.7,1068.3,515.9z"/>
				
					<linearGradient id="SVGID_21_" gradientUnits="userSpaceOnUse" x1="683.4328" y1="419.9298" x2="682.8221" y2="469.4001" gradientTransform="matrix(-1 0 0 -1 1741.4254 1000.6143)">
					<stop  offset="0" style="stop-color:#FFC8EC;stop-opacity:0"/>
					<stop  offset="1" style="stop-color:#FF6A92"/>
				</linearGradient>
				<path class="st20" d="M1046.1,535.1h24.4c1.2,0,2.1,0.9,2.1,2.1v40.9c0,1.2-0.9,2.1-2.1,2.1h-24.4c-1.2,0-2.1-0.9-2.1-2.1v-40.9
					C1044,536.1,1044.9,535.1,1046.1,535.1z"/>
				<linearGradient id="SVGID_22_" gradientUnits="userSpaceOnUse" x1="1047.1588" y1="490.0131" x2="1069.395" y2="490.0131">
					<stop  offset="0" style="stop-color:#FFB8EC"/>
					<stop  offset="1" style="stop-color:#FF6A92"/>
				</linearGradient>
				<path class="st21" d="M1068.8,483.8h-21.1c-0.3,0-0.6,0.2-0.6,0.6v11.3c0,0.3,0.2,0.6,0.6,0.6h21.1c0.3,0,0.6-0.2,0.6-0.6v-11.3
					C1069.4,484,1069.1,483.8,1068.8,483.8z"/>
			</g>
			<g>
				<linearGradient id="SVGID_23_" gradientUnits="userSpaceOnUse" x1="999.5471" y1="598.8007" x2="999.9539" y2="494.6725">
					<stop  offset="0" style="stop-color:#FFC8EC"/>
					<stop  offset="1" style="stop-color:#FF6A92"/>
				</linearGradient>
				<path class="st22" d="M1009.7,515.9v-19.7h-20v19.7c0,1.8-1.5,3.3-3.3,3.3h-4.2c-2.8,0-5,2.2-5,5v68.4c0,2.8,2.2,5,5,5h35
					c2.8,0,5-2.2,5-5v-68.4c0-2.8-2.2-5-5-5h-4.2C1011.1,519.2,1009.7,517.7,1009.7,515.9z"/>
				
					<linearGradient id="SVGID_24_" gradientUnits="userSpaceOnUse" x1="742.0049" y1="419.9298" x2="741.3942" y2="469.4001" gradientTransform="matrix(-1 0 0 -1 1741.4254 1000.6143)">
					<stop  offset="0" style="stop-color:#FFC8EC;stop-opacity:0"/>
					<stop  offset="1" style="stop-color:#FF6A92"/>
				</linearGradient>
				<path class="st23" d="M987.5,535.1h24.4c1.2,0,2.1,0.9,2.1,2.1v40.9c0,1.2-0.9,2.1-2.1,2.1h-24.4c-1.2,0-2.1-0.9-2.1-2.1v-40.9
					C985.4,536.1,986.4,535.1,987.5,535.1z"/>
				<linearGradient id="SVGID_25_" gradientUnits="userSpaceOnUse" x1="988.5867" y1="490.0131" x2="1010.8229" y2="490.0131">
					<stop  offset="0" style="stop-color:#FFB8EC"/>
					<stop  offset="1" style="stop-color:#FF6A92"/>
				</linearGradient>
				<path class="st24" d="M1010.3,483.8h-21.1c-0.3,0-0.6,0.2-0.6,0.6v11.3c0,0.3,0.2,0.6,0.6,0.6h21.1c0.3,0,0.6-0.2,0.6-0.6v-11.3
					C1010.8,484,1010.6,483.8,1010.3,483.8z"/>
			</g>
			<g>
				<linearGradient id="SVGID_26_" gradientUnits="userSpaceOnUse" x1="940.975" y1="598.8007" x2="941.3818" y2="494.6725">
					<stop  offset="0" style="stop-color:#FFC8EC"/>
					<stop  offset="1" style="stop-color:#FF6A92"/>
				</linearGradient>
				<path class="st25" d="M951.1,515.9v-19.7h-20v19.7c0,1.8-1.5,3.3-3.3,3.3h-4.2c-2.8,0-5,2.2-5,5v68.4c0,2.8,2.2,5,5,5h35
					c2.8,0,5-2.2,5-5v-68.4c0-2.8-2.2-5-5-5h-4.2C952.6,519.2,951.1,517.7,951.1,515.9z"/>
				
					<linearGradient id="SVGID_27_" gradientUnits="userSpaceOnUse" x1="800.5771" y1="419.9298" x2="799.9663" y2="469.4001" gradientTransform="matrix(-1 0 0 -1 1741.4254 1000.6143)">
					<stop  offset="0" style="stop-color:#FFC8EC;stop-opacity:0"/>
					<stop  offset="1" style="stop-color:#FF6A92"/>
				</linearGradient>
				<path class="st26" d="M928.9,535.1h24.4c1.2,0,2.1,0.9,2.1,2.1v40.9c0,1.2-0.9,2.1-2.1,2.1h-24.4c-1.2,0-2.1-0.9-2.1-2.1v-40.9
					C926.9,536.1,927.8,535.1,928.9,535.1z"/>
				<linearGradient id="SVGID_28_" gradientUnits="userSpaceOnUse" x1="930.0146" y1="490.0131" x2="952.2507" y2="490.0131">
					<stop  offset="0" style="stop-color:#FFB8EC"/>
					<stop  offset="1" style="stop-color:#FF6A92"/>
				</linearGradient>
				<path class="st27" d="M951.7,483.8h-21.1c-0.3,0-0.6,0.2-0.6,0.6v11.3c0,0.3,0.2,0.6,0.6,0.6h21.1c0.3,0,0.6-0.2,0.6-0.6v-11.3
					C952.3,484,952,483.8,951.7,483.8z"/>
			</g>
			<g>
				<linearGradient id="SVGID_29_" gradientUnits="userSpaceOnUse" x1="882.4029" y1="598.8007" x2="882.8096" y2="494.6725">
					<stop  offset="0" style="stop-color:#FFC8EC"/>
					<stop  offset="1" style="stop-color:#FF6A92"/>
				</linearGradient>
				<path class="st28" d="M892.5,515.9v-19.7h-20v19.7c0,1.8-1.5,3.3-3.3,3.3h-4.2c-2.8,0-5,2.2-5,5v68.4c0,2.8,2.2,5,5,5h35
					c2.8,0,5-2.2,5-5v-68.4c0-2.8-2.2-5-5-5h-4.2C894,519.2,892.5,517.7,892.5,515.9z"/>
				
					<linearGradient id="SVGID_30_" gradientUnits="userSpaceOnUse" x1="859.1492" y1="419.9298" x2="858.5385" y2="469.4001" gradientTransform="matrix(-1 0 0 -1 1741.4254 1000.6143)">
					<stop  offset="0" style="stop-color:#FFC8EC;stop-opacity:0"/>
					<stop  offset="1" style="stop-color:#FF6A92"/>
				</linearGradient>
				<path class="st29" d="M870.4,535.1h24.4c1.2,0,2.1,0.9,2.1,2.1v40.9c0,1.2-0.9,2.1-2.1,2.1h-24.4c-1.2,0-2.1-0.9-2.1-2.1v-40.9
					C868.3,536.1,869.2,535.1,870.4,535.1z"/>
				<linearGradient id="SVGID_31_" gradientUnits="userSpaceOnUse" x1="871.4424" y1="490.0131" x2="893.6786" y2="490.0131">
					<stop  offset="0" style="stop-color:#FFB8EC"/>
					<stop  offset="1" style="stop-color:#FF6A92"/>
				</linearGradient>
				<path class="st30" d="M893.1,483.8H872c-0.3,0-0.6,0.2-0.6,0.6v11.3c0,0.3,0.2,0.6,0.6,0.6h21.1c0.3,0,0.6-0.2,0.6-0.6v-11.3
					C893.7,484,893.4,483.8,893.1,483.8z"/>
			</g>
			<g>
				<linearGradient id="SVGID_32_" gradientUnits="userSpaceOnUse" x1="823.8307" y1="598.8007" x2="824.2375" y2="494.6725">
					<stop  offset="0" style="stop-color:#FFC8EC"/>
					<stop  offset="1" style="stop-color:#FF6A92"/>
				</linearGradient>
				<path class="st31" d="M834,515.9v-19.7h-20v19.7c0,1.8-1.5,3.3-3.3,3.3h-4.2c-2.8,0-5,2.2-5,5v68.4c0,2.8,2.2,5,5,5h35
					c2.8,0,5-2.2,5-5v-68.4c0-2.8-2.2-5-5-5h-4.2C835.4,519.2,834,517.7,834,515.9z"/>
				
					<linearGradient id="SVGID_33_" gradientUnits="userSpaceOnUse" x1="917.7213" y1="419.9298" x2="917.1106" y2="469.4001" gradientTransform="matrix(-1 0 0 -1 1741.4254 1000.6143)">
					<stop  offset="0" style="stop-color:#FFC8EC;stop-opacity:0"/>
					<stop  offset="1" style="stop-color:#FF6A92"/>
				</linearGradient>
				<path class="st32" d="M811.8,535.1h24.4c1.2,0,2.1,0.9,2.1,2.1v40.9c0,1.2-0.9,2.1-2.1,2.1h-24.4c-1.2,0-2.1-0.9-2.1-2.1v-40.9
					C809.7,536.1,810.6,535.1,811.8,535.1z"/>
				<linearGradient id="SVGID_34_" gradientUnits="userSpaceOnUse" x1="812.8703" y1="490.0131" x2="835.1064" y2="490.0131">
					<stop  offset="0" style="stop-color:#FFB8EC"/>
					<stop  offset="1" style="stop-color:#FF6A92"/>
				</linearGradient>
				<path class="st33" d="M834.6,483.8h-21.1c-0.3,0-0.6,0.2-0.6,0.6v11.3c0,0.3,0.2,0.6,0.6,0.6h21.1c0.3,0,0.6-0.2,0.6-0.6v-11.3
					C835.1,484,834.9,483.8,834.6,483.8z"/>
			</g>
			<g>
				<linearGradient id="SVGID_35_" gradientUnits="userSpaceOnUse" x1="765.2586" y1="598.8007" x2="765.6653" y2="494.6725">
					<stop  offset="0" style="stop-color:#FFC8EC"/>
					<stop  offset="1" style="stop-color:#FF6A92"/>
				</linearGradient>
				<path class="st34" d="M775.4,515.9v-19.7h-20v19.7c0,1.8-1.5,3.3-3.3,3.3h-4.2c-2.8,0-5,2.2-5,5v68.4c0,2.8,2.2,5,5,5h35
					c2.8,0,5-2.2,5-5v-68.4c0-2.8-2.2-5-5-5h-4.2C776.9,519.2,775.4,517.7,775.4,515.9z"/>
				
					<linearGradient id="SVGID_36_" gradientUnits="userSpaceOnUse" x1="976.2935" y1="419.9298" x2="975.6827" y2="469.4001" gradientTransform="matrix(-1 0 0 -1 1741.4254 1000.6143)">
					<stop  offset="0" style="stop-color:#FFC8EC;stop-opacity:0"/>
					<stop  offset="1" style="stop-color:#FF6A92"/>
				</linearGradient>
				<path class="st35" d="M753.2,535.1h24.4c1.2,0,2.1,0.9,2.1,2.1v40.9c0,1.2-0.9,2.1-2.1,2.1h-24.4c-1.2,0-2.1-0.9-2.1-2.1v-40.9
					C751.1,536.1,752.1,535.1,753.2,535.1z"/>
				<linearGradient id="SVGID_37_" gradientUnits="userSpaceOnUse" x1="754.2982" y1="490.0131" x2="776.5344" y2="490.0131">
					<stop  offset="0" style="stop-color:#FFB8EC"/>
					<stop  offset="1" style="stop-color:#FF6A92"/>
				</linearGradient>
				<path class="st36" d="M776,483.8h-21.1c-0.3,0-0.6,0.2-0.6,0.6v11.3c0,0.3,0.2,0.6,0.6,0.6H776c0.3,0,0.6-0.2,0.6-0.6v-11.3
					C776.5,484,776.3,483.8,776,483.8z"/>
			</g>
			<g>
				<linearGradient id="SVGID_38_" gradientUnits="userSpaceOnUse" x1="706.6865" y1="598.8007" x2="707.0933" y2="494.6725">
					<stop  offset="0" style="stop-color:#FFC8EC"/>
					<stop  offset="1" style="stop-color:#FF6A92"/>
				</linearGradient>
				<path class="st37" d="M716.8,515.9v-19.7h-20v19.7c0,1.8-1.5,3.3-3.3,3.3h-4.2c-2.8,0-5,2.2-5,5v68.4c0,2.8,2.2,5,5,5h35
					c2.8,0,5-2.2,5-5v-68.4c0-2.8-2.2-5-5-5h-4.2C718.3,519.2,716.8,517.7,716.8,515.9z"/>
				
					<linearGradient id="SVGID_39_" gradientUnits="userSpaceOnUse" x1="1034.8656" y1="419.9298" x2="1034.2549" y2="469.4001" gradientTransform="matrix(-1 0 0 -1 1741.4254 1000.6143)">
					<stop  offset="0" style="stop-color:#FFC8EC;stop-opacity:0"/>
					<stop  offset="1" style="stop-color:#FF6A92"/>
				</linearGradient>
				<path class="st38" d="M694.7,535.1H719c1.2,0,2.1,0.9,2.1,2.1v40.9c0,1.2-0.9,2.1-2.1,2.1h-24.4c-1.2,0-2.1-0.9-2.1-2.1v-40.9
					C692.6,536.1,693.5,535.1,694.7,535.1z"/>
				<linearGradient id="SVGID_40_" gradientUnits="userSpaceOnUse" x1="695.7261" y1="490.0131" x2="717.9622" y2="490.0131">
					<stop  offset="0" style="stop-color:#FFB8EC"/>
					<stop  offset="1" style="stop-color:#FF6A92"/>
				</linearGradient>
				<path class="st39" d="M717.4,483.8h-21.1c-0.3,0-0.6,0.2-0.6,0.6v11.3c0,0.3,0.2,0.6,0.6,0.6h21.1c0.3,0,0.6-0.2,0.6-0.6v-11.3
					C718,484,717.7,483.8,717.4,483.8z"/>
			</g>
			<g>
				<linearGradient id="SVGID_41_" gradientUnits="userSpaceOnUse" x1="648.1143" y1="598.8007" x2="648.5211" y2="494.6725">
					<stop  offset="0" style="stop-color:#FFC8EC"/>
					<stop  offset="1" style="stop-color:#FF6A92"/>
				</linearGradient>
				<path class="st40" d="M658.3,515.9v-19.7h-20v19.7c0,1.8-1.5,3.3-3.3,3.3h-4.2c-2.8,0-5,2.2-5,5v68.4c0,2.8,2.2,5,5,5h35
					c2.8,0,5-2.2,5-5v-68.4c0-2.8-2.2-5-5-5h-4.2C659.7,519.2,658.3,517.7,658.3,515.9z"/>
				
					<linearGradient id="SVGID_42_" gradientUnits="userSpaceOnUse" x1="1093.4377" y1="419.9298" x2="1092.827" y2="469.4001" gradientTransform="matrix(-1 0 0 -1 1741.4254 1000.6143)">
					<stop  offset="0" style="stop-color:#FFC8EC;stop-opacity:0"/>
					<stop  offset="1" style="stop-color:#FF6A92"/>
				</linearGradient>
				<path class="st41" d="M636.1,535.1h24.4c1.2,0,2.1,0.9,2.1,2.1v40.9c0,1.2-0.9,2.1-2.1,2.1h-24.4c-1.2,0-2.1-0.9-2.1-2.1v-40.9
					C634,536.1,634.9,535.1,636.1,535.1z"/>
				<linearGradient id="SVGID_43_" gradientUnits="userSpaceOnUse" x1="637.1539" y1="490.0131" x2="659.3901" y2="490.0131">
					<stop  offset="0" style="stop-color:#FFB8EC"/>
					<stop  offset="1" style="stop-color:#FF6A92"/>
				</linearGradient>
				<path class="st42" d="M658.8,483.8h-21.1c-0.3,0-0.6,0.2-0.6,0.6v11.3c0,0.3,0.2,0.6,0.6,0.6h21.1c0.3,0,0.6-0.2,0.6-0.6v-11.3
					C659.4,484,659.1,483.8,658.8,483.8z"/>
			</g>
			<g>
				<linearGradient id="SVGID_44_" gradientUnits="userSpaceOnUse" x1="589.5422" y1="598.8007" x2="589.949" y2="494.6725">
					<stop  offset="0" style="stop-color:#FFC8EC"/>
					<stop  offset="1" style="stop-color:#FF6A92"/>
				</linearGradient>
				<path class="st43" d="M599.7,515.9v-19.7h-20v19.7c0,1.8-1.5,3.3-3.3,3.3h-4.2c-2.8,0-5,2.2-5,5v68.4c0,2.8,2.2,5,5,5h35
					c2.8,0,5-2.2,5-5v-68.4c0-2.8-2.2-5-5-5H603C601.1,519.2,599.7,517.7,599.7,515.9z"/>
				
					<linearGradient id="SVGID_45_" gradientUnits="userSpaceOnUse" x1="1152.0099" y1="419.9298" x2="1151.3992" y2="469.4001" gradientTransform="matrix(-1 0 0 -1 1741.4254 1000.6143)">
					<stop  offset="0" style="stop-color:#FFC8EC;stop-opacity:0"/>
					<stop  offset="1" style="stop-color:#FF6A92"/>
				</linearGradient>
				<path class="st44" d="M577.5,535.1h24.4c1.2,0,2.1,0.9,2.1,2.1v40.9c0,1.2-0.9,2.1-2.1,2.1h-24.4c-1.2,0-2.1-0.9-2.1-2.1v-40.9
					C575.4,536.1,576.4,535.1,577.5,535.1z"/>
				<linearGradient id="SVGID_46_" gradientUnits="userSpaceOnUse" x1="578.5818" y1="490.0131" x2="600.8179" y2="490.0131">
					<stop  offset="0" style="stop-color:#FFB8EC"/>
					<stop  offset="1" style="stop-color:#FF6A92"/>
				</linearGradient>
				<path class="st45" d="M600.3,483.8h-21.1c-0.3,0-0.6,0.2-0.6,0.6v11.3c0,0.3,0.2,0.6,0.6,0.6h21.1c0.3,0,0.6-0.2,0.6-0.6v-11.3
					C600.8,484,600.6,483.8,600.3,483.8z"/>
			</g>
			<g>
				<linearGradient id="SVGID_47_" gradientUnits="userSpaceOnUse" x1="1172.5742" y1="789.9208" x2="1171.964" y2="699.0037">
					<stop  offset="0" style="stop-color:#FFC8EC"/>
					<stop  offset="1" style="stop-color:#FF6A92"/>
				</linearGradient>
				<path class="st46" d="M1195.9,700.9h-47.3c-0.7,0-1.3,0.6-1.3,1.3v86h50v-86C1197.3,701.5,1196.7,700.9,1195.9,700.9z"/>
				<linearGradient id="SVGID_48_" gradientUnits="userSpaceOnUse" x1="1151.953" y1="694.1808" x2="1192.5958" y2="694.1808">
					<stop  offset="0" style="stop-color:#FFC8EC"/>
					<stop  offset="1" style="stop-color:#FF6A92"/>
				</linearGradient>
				<path class="st47" d="M1190.7,687.5h-36.8c-1.1,0-1.9,0.9-1.9,1.9v11.5h40.6v-11.5C1192.6,688.3,1191.7,687.5,1190.7,687.5z"/>
			</g>
			<g>
				<linearGradient id="SVGID_49_" gradientUnits="userSpaceOnUse" x1="1108.7142" y1="789.9208" x2="1108.1041" y2="699.0037">
					<stop  offset="0" style="stop-color:#FFC8EC"/>
					<stop  offset="1" style="stop-color:#FF6A92"/>
				</linearGradient>
				<path class="st48" d="M1132.1,700.9h-47.3c-0.7,0-1.3,0.6-1.3,1.3v86h50v-86C1133.4,701.5,1132.8,700.9,1132.1,700.9z"/>
				<linearGradient id="SVGID_50_" gradientUnits="userSpaceOnUse" x1="1088.0931" y1="694.1808" x2="1128.7358" y2="694.1808">
					<stop  offset="0" style="stop-color:#FFC8EC"/>
					<stop  offset="1" style="stop-color:#FF6A92"/>
				</linearGradient>
				<path class="st49" d="M1126.8,687.5H1090c-1.1,0-1.9,0.9-1.9,1.9v11.5h40.6v-11.5C1128.7,688.3,1127.9,687.5,1126.8,687.5z"/>
			</g>
			<g>
				<linearGradient id="SVGID_51_" gradientUnits="userSpaceOnUse" x1="1044.8544" y1="789.9208" x2="1044.2443" y2="699.0037">
					<stop  offset="0" style="stop-color:#FFC8EC"/>
					<stop  offset="1" style="stop-color:#FF6A92"/>
				</linearGradient>
				<path class="st50" d="M1068.2,700.9h-47.3c-0.7,0-1.3,0.6-1.3,1.3v86h50v-86C1069.6,701.5,1069,700.9,1068.2,700.9z"/>
				<linearGradient id="SVGID_52_" gradientUnits="userSpaceOnUse" x1="1024.2332" y1="694.1808" x2="1064.876" y2="694.1808">
					<stop  offset="0" style="stop-color:#FFC8EC"/>
					<stop  offset="1" style="stop-color:#FF6A92"/>
				</linearGradient>
				<path class="st51" d="M1063,687.5h-36.8c-1.1,0-1.9,0.9-1.9,1.9v11.5h40.6v-11.5C1064.9,688.3,1064,687.5,1063,687.5z"/>
			</g>
			<g>
				<linearGradient id="SVGID_53_" gradientUnits="userSpaceOnUse" x1="980.9945" y1="789.9208" x2="980.3843" y2="699.0037">
					<stop  offset="0" style="stop-color:#FFC8EC"/>
					<stop  offset="1" style="stop-color:#FF6A92"/>
				</linearGradient>
				<path class="st52" d="M1004.4,700.9H957c-0.7,0-1.3,0.6-1.3,1.3v86h50v-86C1005.7,701.5,1005.1,700.9,1004.4,700.9z"/>
				<linearGradient id="SVGID_54_" gradientUnits="userSpaceOnUse" x1="960.3733" y1="694.1808" x2="1001.0161" y2="694.1808">
					<stop  offset="0" style="stop-color:#FFC8EC"/>
					<stop  offset="1" style="stop-color:#FF6A92"/>
				</linearGradient>
				<path class="st53" d="M999.1,687.5h-36.8c-1.1,0-1.9,0.9-1.9,1.9v11.5h40.6v-11.5C1001,688.3,1000.2,687.5,999.1,687.5z"/>
			</g>
			<g>
				<linearGradient id="SVGID_55_" gradientUnits="userSpaceOnUse" x1="917.1346" y1="789.9208" x2="916.5244" y2="699.0037">
					<stop  offset="0" style="stop-color:#FFC8EC"/>
					<stop  offset="1" style="stop-color:#FF6A92"/>
				</linearGradient>
				<path class="st54" d="M940.5,700.9h-47.3c-0.7,0-1.3,0.6-1.3,1.3v86h50v-86C941.8,701.5,941.2,700.9,940.5,700.9z"/>
				<linearGradient id="SVGID_56_" gradientUnits="userSpaceOnUse" x1="896.5134" y1="694.1808" x2="937.1562" y2="694.1808">
					<stop  offset="0" style="stop-color:#FFC8EC"/>
					<stop  offset="1" style="stop-color:#FF6A92"/>
				</linearGradient>
				<path class="st55" d="M935.2,687.5h-36.8c-1.1,0-1.9,0.9-1.9,1.9v11.5h40.6v-11.5C937.2,688.3,936.3,687.5,935.2,687.5z"/>
			</g>
			<g>
				<linearGradient id="SVGID_57_" gradientUnits="userSpaceOnUse" x1="853.2747" y1="789.9208" x2="852.6646" y2="699.0037">
					<stop  offset="0" style="stop-color:#FFC8EC"/>
					<stop  offset="1" style="stop-color:#FF6A92"/>
				</linearGradient>
				<path class="st56" d="M876.6,700.9h-47.3c-0.7,0-1.3,0.6-1.3,1.3v86h50v-86C878,701.5,877.4,700.9,876.6,700.9z"/>
				<linearGradient id="SVGID_58_" gradientUnits="userSpaceOnUse" x1="832.6535" y1="694.1808" x2="873.2963" y2="694.1808">
					<stop  offset="0" style="stop-color:#FFC8EC"/>
					<stop  offset="1" style="stop-color:#FF6A92"/>
				</linearGradient>
				<path class="st57" d="M871.4,687.5h-36.8c-1.1,0-1.9,0.9-1.9,1.9v11.5h40.6v-11.5C873.3,688.3,872.4,687.5,871.4,687.5z"/>
			</g>
			<g>
				<linearGradient id="SVGID_59_" gradientUnits="userSpaceOnUse" x1="789.4148" y1="789.9208" x2="788.8046" y2="699.0037">
					<stop  offset="0" style="stop-color:#FFC8EC"/>
					<stop  offset="1" style="stop-color:#FF6A92"/>
				</linearGradient>
				<path class="st58" d="M812.8,700.9h-47.3c-0.7,0-1.3,0.6-1.3,1.3v86h50v-86C814.1,701.5,813.5,700.9,812.8,700.9z"/>
				<linearGradient id="SVGID_60_" gradientUnits="userSpaceOnUse" x1="768.7936" y1="694.1808" x2="809.4364" y2="694.1808">
					<stop  offset="0" style="stop-color:#FFC8EC"/>
					<stop  offset="1" style="stop-color:#FF6A92"/>
				</linearGradient>
				<path class="st59" d="M807.5,687.5h-36.8c-1.1,0-1.9,0.9-1.9,1.9v11.5h40.6v-11.5C809.4,688.3,808.6,687.5,807.5,687.5z"/>
			</g>
			<g>
				<linearGradient id="SVGID_61_" gradientUnits="userSpaceOnUse" x1="725.5549" y1="789.9208" x2="724.9447" y2="699.0037">
					<stop  offset="0" style="stop-color:#FFC8EC"/>
					<stop  offset="1" style="stop-color:#FF6A92"/>
				</linearGradient>
				<path class="st60" d="M748.9,700.9h-47.3c-0.7,0-1.3,0.6-1.3,1.3v86h50v-86C750.3,701.5,749.7,700.9,748.9,700.9z"/>
				<linearGradient id="SVGID_62_" gradientUnits="userSpaceOnUse" x1="704.9337" y1="694.1808" x2="745.5765" y2="694.1808">
					<stop  offset="0" style="stop-color:#FFC8EC"/>
					<stop  offset="1" style="stop-color:#FF6A92"/>
				</linearGradient>
				<path class="st61" d="M743.7,687.5h-36.8c-1.1,0-1.9,0.9-1.9,1.9v11.5h40.6v-11.5C745.6,688.3,744.7,687.5,743.7,687.5z"/>
			</g>
			<g>
				<linearGradient id="SVGID_63_" gradientUnits="userSpaceOnUse" x1="661.695" y1="789.9208" x2="661.0848" y2="699.0037">
					<stop  offset="0" style="stop-color:#FFC8EC"/>
					<stop  offset="1" style="stop-color:#FF6A92"/>
				</linearGradient>
				<path class="st62" d="M685.1,700.9h-47.3c-0.7,0-1.3,0.6-1.3,1.3v86h50v-86C686.4,701.5,685.8,700.9,685.1,700.9z"/>
				<linearGradient id="SVGID_64_" gradientUnits="userSpaceOnUse" x1="641.0738" y1="694.1808" x2="681.7166" y2="694.1808">
					<stop  offset="0" style="stop-color:#FFC8EC"/>
					<stop  offset="1" style="stop-color:#FF6A92"/>
				</linearGradient>
				<path class="st63" d="M679.8,687.5H643c-1.1,0-1.9,0.9-1.9,1.9v11.5h40.6v-11.5C681.7,688.3,680.9,687.5,679.8,687.5z"/>
			</g>
			<g>
				<linearGradient id="SVGID_65_" gradientUnits="userSpaceOnUse" x1="597.8351" y1="789.9208" x2="597.2249" y2="699.0037">
					<stop  offset="0" style="stop-color:#FFC8EC"/>
					<stop  offset="1" style="stop-color:#FF6A92"/>
				</linearGradient>
				<path class="st64" d="M621.2,700.9h-47.3c-0.7,0-1.3,0.6-1.3,1.3v86h50v-86C622.5,701.5,621.9,700.9,621.2,700.9z"/>
				<linearGradient id="SVGID_66_" gradientUnits="userSpaceOnUse" x1="577.2139" y1="694.1808" x2="617.8568" y2="694.1808">
					<stop  offset="0" style="stop-color:#FFC8EC"/>
					<stop  offset="1" style="stop-color:#FF6A92"/>
				</linearGradient>
				<path class="st65" d="M615.9,687.5h-36.8c-1.1,0-1.9,0.9-1.9,1.9v11.5h40.6v-11.5C617.9,688.3,617,687.5,615.9,687.5z"/>
			</g>
			<linearGradient id="SVGID_67_" gradientUnits="userSpaceOnUse" x1="880.0864" y1="305.8854" x2="879.7239" y2="239.1932">
				<stop  offset="0" style="stop-color:#FFC8EC;stop-opacity:0"/>
				<stop  offset="1" style="stop-color:#FF6A92"/>
			</linearGradient>
			<path class="st66" d="M1205.3,241.1H554.6c-3.6,0-6.4,2-6.4,4.4v59.8h663.6v-59.8C1211.7,243.1,1208.8,241.1,1205.3,241.1z"/>
			<linearGradient id="SVGID_68_" gradientUnits="userSpaceOnUse" x1="880.0837" y1="490.8973" x2="879.7511" y2="429.6989">
				<stop  offset="0" style="stop-color:#FFC8EC;stop-opacity:0"/>
				<stop  offset="1" style="stop-color:#FF6A92"/>
			</linearGradient>
			<rect x="548.1" y="431.6" class="st67" width="663.6" height="58.6"/>
			<linearGradient id="SVGID_69_" gradientUnits="userSpaceOnUse" x1="880.0837" y1="681.4605" x2="879.7511" y2="620.2621">
				<stop  offset="0" style="stop-color:#FFC8EC;stop-opacity:0"/>
				<stop  offset="1" style="stop-color:#FF6A92"/>
			</linearGradient>
			<rect x="548.1" y="622.2" class="st68" width="663.6" height="58.6"/>
			<linearGradient id="SVGID_70_" gradientUnits="userSpaceOnUse" x1="880.0837" y1="872.0237" x2="879.7511" y2="810.8253">
				<stop  offset="0" style="stop-color:#FFC8EC;stop-opacity:0"/>
				<stop  offset="1" style="stop-color:#FF6A92"/>
			</linearGradient>
			<rect x="548.1" y="812.7" class="st69" width="663.6" height="58.6"/>
			<path class="st70" d="M1217.4,216.7h-675c-10.3,0-18.7,8.4-18.7,18.7v693.7h712.4V235.4C1236.1,225,1227.8,216.7,1217.4,216.7z
				 M554.6,241.1h650.7c3.6,0,6.4,2.9,6.4,6.4v159.7H548.1V247.5C548.1,244,551,241.1,554.6,241.1z M548.1,597.7V431.6h663.6v166.1
				H548.1z M1211.7,622.2v166.1H548.1V622.2H1211.7z M548.1,904.7v-92h663.6v92H548.1z"/>
		</g>
	</g>
	<g>
		<defs>
			<path id="SVGID_71_" d="M772.3,133.5c66.6,24.7,155.7-1.9,180.1,81.1c2.1,7,3.8,14.1,5.7,21.1c3,11.3,6.3,22.5,11.6,32.9
				c40.6,78.7,142.8,55.8,202.6,108.6c56.4,49.9,69.5,130.2,44.8,201.3c-9.5,27.4-23.3,52.9-38.9,76.8
				c-109,166.6-326.1,234.2-510.1,237.6c-60.7,1.1-121.7-7-179.7-26.1c-56.5-18.5-103.5-58.8-159.4-75.7
				c-51.9-15.7-114.7-40.4-143.2-92.6c-15.8-29-16.4-66.1-4.5-96.8c10.5-27.2,34.7-44.6,46.8-70.7c8.9-19.2,9.8-42.3,2.5-62.2
				c-13.3-36.1-46.6-58.8-56.2-97.4c-9.7-39.1,2.9-82.8,26.9-113.3C201.2,258,357-20.7,772.3,133.5z"/>
		</defs>
		<clipPath id="SVGID_72_">
			<use xlink:href="#SVGID_71_"  style="overflow:visible;"/>
		</clipPath>
		<g class="st71">
			<rect x="822.5" y="578.9" class="st72" width="132.2" height="14.3"/>
			<path class="st73" d="M449.6,239.9h-61.2c-10.1,0-18.2,8.4-17.9,18.5l3.2,92.8c0.3,8.4-6.5,15.4-14.9,15.4h-58
				c-8.4,0-15.2-7-14.9-15.4l3.3-107.3c0-29.6,18.9-57.2,44.7-73.6v0h0c15-9.6,32.4-15.3,49.7-15.3c39.7,0,73,27.3,82.3,64.1
				C468.4,229.7,460.4,239.9,449.6,239.9z"/>
			<path class="st74" d="M388.4,239.9c-10.1,0-18.2,8.4-17.9,18.5l2.8,80.1c87,1.9,71.1-98.6,71.1-98.6H388.4z"/>
			<g>
				<path class="st75" d="M397.9,335.8l-6.7,30.8h-32.3c6.9,0,12.6-4.6,14.3-10.9c0.4-1.5,0.6-3,0.6-4.6l-0.5-12.7
					C382.6,338.6,390.7,337.7,397.9,335.8z"/>
			</g>
			<path class="st76" d="M311.6,366.6L281.8,529c-2.7,14.8,8.7,28.5,23.7,28.5h142.7c1.8,0,3.4-1.1,4-2.8l3.2-22.8
				c0.4-2.6-1.6-4.9-4.2-4.9H330.3c-4.4,0-7.2-4.6-5.2-8.5l40.8-80.2c6-21.4,4.6-59.2-19.8-71.7H311.6z"/>
			<path class="st77" d="M425.1,448.6c-9.5,13.5-25.2,47.7-35.6,78.3h-59.3c-4.4,0-7.2-4.6-5.2-8.5l35.5-69.7
				c5.1-10,8.1-21,8.3-32.2c0-3.2-0.1-6.5-0.4-9.7v0c-1.6-16.4-7.9-32.7-22.4-40.1h45.1l33.2,43.5C433,421.4,433.4,437,425.1,448.6z
				"/>
			<path class="st78" d="M377.7,756.9c-4.8,59.5-9.3,107.5-9.3,107.5h-67l-32.1-107.5L253,702.5c-34.6-107.9,12.3-151.1,29.3-162.6
				c2.8,10,12,17.6,23.2,17.6H389C389.6,598.7,383.4,685.9,377.7,756.9z"/>
			<path class="st79" d="M589.1,644.5h-15.5L556,576.6l-0.4-1.6c-1.6-6.1-7.1-10.3-13.3-10.3h-49.9v-15h49.9
				c13.1,0,24.6,8.9,27.9,21.6l1.4,5.4L589.1,644.5z"/>
			<path class="st79" d="M960,849.8l-18.4,28.3c-7.1,11-19.3,17.7-32.4,17.7H659.6c-11.7,0-22.2-7.9-25.4-19.2l-8.1-29l-28-99.9
				c5.9,17.2,15.6,32.9,28.5,45.8l14.4,51.4l7.7,27.6c1.4,4.9,5.8,8.3,10.9,8.3h249.7c8,0,15.4-4,19.8-10.8l18.4-28.3
				c2.3-3.5,6.9-4.5,10.4-2.2C961.2,841.7,962.2,846.3,960,849.8z"/>
			<rect x="826.4" y="593.2" class="st80" width="124.4" height="51.3"/>
			<g>
				<rect x="742.3" y="551.3" class="st76" width="52" height="93.2"/>
				<polygon class="st77" points="810.4,519 794.4,551.3 794.4,644.5 810.4,644.5 826.4,644.5 826.4,551.3 				"/>
				<polygon class="st81" points="742.3,551.3 758.4,519 810.4,519 794.4,551.3 				"/>
				<rect x="758.4" y="508" class="st77" width="52" height="11.1"/>
				<ellipse class="st77" cx="775.4" cy="534" rx="10.4" ry="5.4"/>
				<path class="st81" d="M794.3,616.9v27.6h-52v-71c7.6,0.8,22.1,4.4,26,20.8C768.3,594.3,773.1,616.9,794.3,616.9z"/>
			</g>
			<g>
				<path class="st80" d="M661.6,530.2c-0.1-11.2-7.4-20.7-17.5-24.1v-16.8h-16.5v16.8c-10.1,3.4-17.4,12.9-17.5,24.1h0v99.4
					c0,3.2,2.6,5.8,5.8,5.8h39.8c3.2,0,5.8-2.6,5.8-5.8L661.6,530.2z"/>
				<rect x="627.6" y="448.4" class="st82" width="16.5" height="40.9"/>
				<rect x="616.8" y="543" class="st83" width="38.1" height="66.5"/>
				<path class="st82" d="M635.9,574.7c-0.8,0-1.4-0.6-1.5-1.4c-0.2-1.5-1.5-14.9,4.2-18.1c0.7-0.4,1.7-0.1,2.1,0.6
					c0.4,0.7,0.1,1.7-0.6,2.1c-3.1,1.7-3.1,10.9-2.7,15.1c0.1,0.8-0.5,1.6-1.4,1.7C636,574.7,636,574.7,635.9,574.7z"/>
				<path class="st82" d="M647.3,571.2c0-3.4-2.7-6.1-6.1-6.1c-2.3,0-4.2,1.2-5.3,3.1c-1.1-1.8-3-3.1-5.3-3.1
					c-3.4,0-6.1,2.8-6.1,6.1c0,3.1,2.3,5.7,5.4,6.1c0,0.3-0.1,0.5-0.1,0.8c0,3.4,2.8,6.1,6.1,6.1c3.4,0,6.1-2.8,6.1-6.1
					c0-0.3,0-0.5-0.1-0.8C645,576.9,647.3,574.4,647.3,571.2z"/>
			</g>
			<circle class="st84" cx="490.7" cy="557.2" r="11.3"/>
			<path class="st75" d="M455.4,531.8c0,0,18.8-5.1,33.9-2.4c6,1.1,11.4,4.6,14.6,9.8c1.6,2.6,2.4,5.2,1.9,8.3
				c-0.8,4.3-4,7.9-8.2,9.3c-4.1,1.4-10.4,2-17.4-3c0,0-8.9-5.9-27.3-3.6L455.4,531.8z"/>
			<linearGradient id="SVGID_73_" gradientUnits="userSpaceOnUse" x1="619.181" y1="847.0334" x2="619.7593" y2="743.5331">
				<stop  offset="0" style="stop-color:#FFC8EC;stop-opacity:0"/>
				<stop  offset="1" style="stop-color:#FF6A92"/>
			</linearGradient>
			<path class="st85" d="M640.9,844.9c-4.9,0.9-9.8,1.8-14.9,2.7l-28-99.9c5.9,17.2,15.6,32.9,28.5,45.8L640.9,844.9z"/>
			<linearGradient id="SVGID_74_" gradientUnits="userSpaceOnUse" x1="565.2541" y1="577.6257" x2="581.646" y2="651.5564">
				<stop  offset="0" style="stop-color:#FFC8EC;stop-opacity:0"/>
				<stop  offset="1" style="stop-color:#FF6A92"/>
			</linearGradient>
			<polygon class="st86" points="589.1,644.5 573.6,644.5 556,576.6 571.5,576.6 			"/>
			<linearGradient id="SVGID_75_" gradientUnits="userSpaceOnUse" x1="888.6838" y1="629.6693" x2="888.4263" y2="594.9073">
				<stop  offset="0" style="stop-color:#FFC8EC;stop-opacity:0"/>
				<stop  offset="1" style="stop-color:#CE1F20"/>
			</linearGradient>
			<polygon class="st87" points="950.7,593.2 950.7,603.8 826.4,635.4 826.4,593.2 			"/>
			<linearGradient id="SVGID_76_" gradientUnits="userSpaceOnUse" x1="635.9001" y1="553.8696" x2="635.9001" y2="579.0585">
				<stop  offset="0" style="stop-color:#FFC8EC;stop-opacity:0"/>
				<stop  offset="1" style="stop-color:#CE1F20"/>
			</linearGradient>
			<rect x="610.2" y="555" class="st88" width="51.4" height="36.9"/>
			<path class="st76" d="M665.5,576.6h-72.1c-2.4,0-4.4,1.9-4.4,4.4v17h80.8v-17C669.9,578.5,668,576.6,665.5,576.6z"/>
			<rect x="589.1" y="597.9" class="st77" width="80.8" height="46.6"/>
			<linearGradient id="SVGID_77_" gradientUnits="userSpaceOnUse" x1="621.3637" y1="610.5518" x2="666.7694" y2="610.5518">
				<stop  offset="0" style="stop-color:#FFC8EC;stop-opacity:0"/>
				<stop  offset="1" style="stop-color:#6300BF"/>
			</linearGradient>
			<rect x="621.4" y="576.6" class="st89" width="45.4" height="67.9"/>
			<g>
				<linearGradient id="SVGID_78_" gradientUnits="userSpaceOnUse" x1="640.1353" y1="605.0646" x2="758.3549" y2="605.0646">
					<stop  offset="0" style="stop-color:#FF2368"/>
					<stop  offset="1" style="stop-color:#F01A54"/>
				</linearGradient>
				<path class="st90" d="M741,646.9c-23.1,23.1-60.5,23.1-83.6,0c-9.7-9.7-15.3-22-16.9-34.6c-2.1-17.4,3.5-35.6,16.9-49
					c13.4-13.4,31.6-19,49-16.9c12.7,1.5,24.9,7.2,34.6,16.9C764.1,586.4,764.1,623.8,741,646.9z"/>
				<path class="st91" d="M689.5,595.4c-13.4,13.4-31.6,19-49,16.9c-2.1-17.4,3.5-35.6,16.9-49c13.4-13.4,31.6-19,49-16.9
					C708.5,563.8,702.9,582,689.5,595.4z"/>
				<path class="st91" d="M711.8,617.6c-12.7,12.7-18.4,29.8-17.1,46.4c16.6,1.3,33.7-4.4,46.4-17.1c12.7-12.7,18.4-29.8,17.1-46.4
					C741.5,599.2,724.5,604.9,711.8,617.6z"/>
			</g>
			<path class="st92" d="M984.5,663.9v39c0,0.5,0,0.9,0,1.3c-0.6,20.8-13.8,39.1-33.4,46.1l-200.6,71.3c-42.3,15-89.4,5-121.9-25.9
				c-8.4-8-15.6-17.3-21.3-27.3c-5.7-10-10-20.9-12.6-32.2l-21.1-91.6h391.6C975.9,644.5,984.5,653.2,984.5,663.9z"/>
			<path class="st93" d="M984.5,704.2c-0.6,20.8-13.8,39.1-33.4,46.1l-200.6,71.3c-42.3,15-89.4,5-121.9-25.9
				c-8.4-8-15.6-17.3-21.3-27.3c-5.7-10-10-20.9-12.6-32.2l-21.1-91.6h68.2l23.9,91.3c7.2,27.4,35.3,43.8,62.7,36.5L984.5,704.2z"/>
			<linearGradient id="SVGID_79_" gradientUnits="userSpaceOnUse" x1="310.514" y1="748.8921" x2="315.5216" y2="576.1302">
				<stop  offset="0" style="stop-color:#FFFFFF;stop-opacity:0"/>
				<stop  offset="1" style="stop-color:#1C0043"/>
			</linearGradient>
			<path class="st94" d="M377.7,756.9H269.3L253,702.5c-34.6-107.9,12.3-151.1,29.3-162.6c2.8,10,12,17.6,23.2,17.6H389
				C389.6,598.7,383.4,685.9,377.7,756.9z"/>
			<linearGradient id="SVGID_80_" gradientUnits="userSpaceOnUse" x1="377.4142" y1="472.5646" x2="307.6638" y2="458.4865">
				<stop  offset="0" style="stop-color:#FFC8EC;stop-opacity:0"/>
				<stop  offset="1" style="stop-color:#6300BF"/>
			</linearGradient>
			<path class="st95" d="M383.4,468c3.3,31.5-21.5,59-53.2,59h0c-4.4,0-7.2-4.6-5.2-8.5l35.5-69.7c5.1-10,8.1-21,8.3-32.2
				c0-3.2-0.1-6.5-0.4-9.7l11.6,38c1,3.3,1.7,6.7,2,10.1L383.4,468z"/>
			<linearGradient id="SVGID_81_" gradientUnits="userSpaceOnUse" x1="384.199" y1="354.6457" x2="386.0769" y2="330.4424">
				<stop  offset="0" style="stop-color:#FFFFFF;stop-opacity:0"/>
				<stop  offset="1" style="stop-color:#FFB6A6"/>
			</linearGradient>
			<path class="st96" d="M397.9,335.8l-4.4,19.9h-20.4c0.4-1.5,0.6-3,0.6-4.6l-0.5-12.7C382.6,338.6,390.7,337.7,397.9,335.8z"/>
			<path class="st97" d="M333.8,170.3c-0.7,0.8-21.1,17.6-21.5,99.2l-0.4,97h-11.1c-8.4,0-15.2-7-14.9-15.4l3.3-107.3
				C289.1,214.3,308,186.7,333.8,170.3z"/>
			<path class="st75" d="M333.8,170.3C333.8,170.3,333.8,170.3,333.8,170.3L333.8,170.3L333.8,170.3z"/>
		</g>
	</g>
</g>
</svg>
